<svg xmlns="http://www.w3.org/2000/svg" viewBox="204 239 19.2 19.2"><defs><style>.a{fill:#bdd1df;}</style></defs><path class="a" d="M10,.4A9.6,9.6,0,1,0,19.6,10,9.6,9.6,0,0,0,10,.4Zm3.9,7.864c0,.082.005.164.005.244a5.376,5.376,0,0,1-8.277,4.531,3.719,3.719,0,0,0,.451.025,3.787,3.787,0,0,0,2.348-.809,1.9,1.9,0,0,1-1.766-1.312,1.969,1.969,0,0,0,.355.033,1.9,1.9,0,0,0,.5-.066A1.892,1.892,0,0,1,6,9.056V9.033a1.9,1.9,0,0,0,.857.237,1.9,1.9,0,0,1-.585-2.526,5.376,5.376,0,0,0,3.9,1.977,1.864,1.864,0,0,1-.049-.432A1.891,1.891,0,0,1,13.393,7a3.8,3.8,0,0,0,1.2-.459,1.9,1.9,0,0,1-.831,1.047,3.8,3.8,0,0,0,1.086-.3A3.834,3.834,0,0,1,13.9,8.264Z" transform="translate(203.6 238.6)"/></svg>